<svg id="Layer_1_copy_3" data-name="Layer 1 copy 3" xmlns="http://www.w3.org/2000/svg" xmlns:xlink="http://www.w3.org/1999/xlink" viewBox="0 0 630.8 568.61"><defs><style>.cls-1{fill:url(#Безымянный_градиент_8);}</style><linearGradient id="Безымянный_градиент_8" x1="706.03" y1="757.66" x2="1336.83" y2="757.66" gradientUnits="userSpaceOnUse"><stop offset="0" stop-color="#f26f61"/><stop offset="1" stop-color="#f58e58"/></linearGradient></defs><title>safeMinder logo gradient</title><path class="cls-1" d="M899.54,476.3c27-1,55.36,5.89,82.15,20.16,13.24,7.06,16.65,14.32,5.21,26.87-19.31,21.18-36.69,36-70.76,26.14-46.6-13.43-86.55,6.47-115.31,45-28.9,38.73-32.6,81-10.72,124.3,12.15,24.05,18.12,24.68,36.91,5.49,64.09-65.45,127.28-131.79,192-196.62,55.49-55.61,134.58-69.11,206.5-37.66,69.36,30.34,114.46,102.33,111.16,179-2.05,47.78-20.88,89.11-53.81,123.25-75.43,78.22-152.23,155.14-227.1,233.89-18.81,19.8-34.84,19.64-56.48,7.2-90.94-52.27-119.36-168-63.11-260,28.5-46.57,68.61-82.72,107.61-119.88,11.7-11.16,24.39-21.53,34.61-33.93,15.76-19.11,27.72-15.63,43.39.93,28.06,29.65,28.25,28.16-1.72,56.71-44.79,42.68-92.39,82.91-124.65,137.09-25.6,43-23.7,89.41,4.69,126.15,9.8,12.68,17.65,15.33,29.93,2.58,67.91-70.5,137.35-139.56,204.21-211,41.72-44.6,34-115.32-13.49-156.55-44.56-38.71-113.45-32.93-155.66,11.4-73.69,77.38-148.59,153.6-222.21,231-17,17.86-31.8,18.56-51.55,5.11-69.74-47.52-101.6-134.14-77.11-212.88C739.52,528.71,811,476.17,899.54,476.3Z" transform="translate(-706.03 -473.36)"/></svg>